<svg width="2565" height="1439" viewBox="0 0 2565 1439" fill="none" xmlns="http://www.w3.org/2000/svg">
<path d="M0 -1H2560V1439H0V-1Z" fill="url(#paint0_linear_23_3)"/>
<g filter="url(#filter0_d_23_3)">
<rect x="531" y="347" width="495" height="454" rx="30" fill="#C4C4C4"/>
</g>
<g filter="url(#filter1_di_23_3)">
<rect x="554" y="356.48" width="448.462" height="444.248" rx="15" fill="#F1EBEB"/>
</g>
<g filter="url(#filter2_d_23_3)">
<rect x="19" y="347" width="495" height="454" rx="30" fill="#C4C4C4"/>
</g>
<g filter="url(#filter3_di_23_3)">
<rect x="42" y="356.48" width="448.462" height="444.248" rx="15" fill="#F1EBEB"/>
</g>
<g opacity="0.8" filter="url(#filter4_dii_23_3)">
<rect x="19" y="32" width="2527" height="286" rx="35" fill="white"/>
</g>
<g filter="url(#filter5_d_23_3)">
<rect x="2061" y="365" width="495" height="436" rx="30" fill="#C4C4C4"/>
</g>
<g filter="url(#filter6_di_23_3)">
<rect x="2084" y="374.104" width="448.462" height="426.635" rx="15" fill="#F1EBEB"/>
</g>
<g filter="url(#filter7_d_23_3)">
<rect x="810" y="43" width="432" height="254" rx="30" fill="white"/>
<rect x="810.5" y="43.5" width="431" height="253" rx="29.5" stroke="black" stroke-opacity="0.05"/>
</g>
<g filter="url(#filter8_iii_23_3)">
<rect x="811" y="43" width="429" height="247.923" rx="30" fill="#D1D0D0"/>
</g>
<rect x="811.5" y="43.5" width="428" height="246.923" rx="29.5" stroke="black" stroke-opacity="0.05"/>
<g filter="url(#filter9_d_23_3)">
<rect x="2090" y="82" width="394" height="209" rx="30" fill="white"/>
<rect x="2090.5" y="82.5" width="393" height="208" rx="29.5" stroke="black" stroke-opacity="0.05"/>
</g>
<g filter="url(#filter10_iii_23_3)">
<rect x="2090.91" y="82" width="391.264" height="204" rx="30" fill="#D1D0D0"/>
</g>
<rect x="2091.41" y="82.5" width="390.264" height="203" rx="29.5" stroke="black" stroke-opacity="0.05"/>
<g filter="url(#filter11_d_23_3)">
<rect x="1702" y="76" width="359" height="209" rx="30" fill="white"/>
<rect x="1702.5" y="76.5" width="358" height="208" rx="29.5" stroke="black" stroke-opacity="0.05"/>
</g>
<g filter="url(#filter12_iii_23_3)">
<rect x="1702.83" y="76" width="356.507" height="204" rx="30" fill="#D1D0D0"/>
</g>
<rect x="1703.33" y="76.5" width="355.507" height="203" rx="29.5" stroke="black" stroke-opacity="0.05"/>
<g filter="url(#filter13_d_23_3)">
<rect x="1271" y="70" width="402" height="209" rx="30" fill="white"/>
<rect x="1271.5" y="70.5" width="401" height="208" rx="29.5" stroke="black" stroke-opacity="0.05"/>
</g>
<g filter="url(#filter14_iii_23_3)">
<rect x="1271.93" y="70" width="399.208" height="204" rx="30" fill="#D1D0D0"/>
</g>
<rect x="1272.43" y="70.5" width="398.208" height="203" rx="29.5" stroke="black" stroke-opacity="0.05"/>
<g filter="url(#filter15_i_23_3)">
<path d="M41.5752 141V87.9091H63.7137C67.6886 87.9091 71.0155 88.4708 73.6942 89.5941C76.3902 90.7174 78.4122 92.2901 79.7603 94.3121C81.1255 96.3342 81.8082 98.6759 81.8082 101.337C81.8082 103.359 81.3848 105.165 80.538 106.755C79.6911 108.328 78.5246 109.633 77.0383 110.67C75.552 111.707 73.8325 112.433 71.8796 112.847V113.366C74.0226 113.469 76.0014 114.048 77.816 115.103C79.6479 116.157 81.1169 117.626 82.223 119.51C83.329 121.376 83.8821 123.588 83.8821 126.146C83.8821 128.998 83.1562 131.547 81.7045 133.793C80.2528 136.023 78.153 137.786 75.4051 139.082C72.6573 140.361 69.3218 141 65.3987 141H41.5752ZM54.4073 130.657H62.3398C65.1222 130.657 67.1702 130.129 68.4836 129.075C69.8144 128.021 70.4797 126.552 70.4797 124.668C70.4797 123.303 70.16 122.128 69.5206 121.143C68.8811 120.14 67.9738 119.371 66.7986 118.836C65.6234 118.283 64.2149 118.006 62.5731 118.006H54.4073V130.657ZM54.4073 109.737H61.5103C62.9101 109.737 64.1544 109.503 65.2432 109.037C66.332 108.57 67.1788 107.896 67.7837 107.015C68.4059 106.133 68.7169 105.07 68.7169 103.826C68.7169 102.046 68.0861 100.646 66.8245 99.6264C65.5629 98.6068 63.8606 98.0969 61.7176 98.0969H54.4073V109.737ZM101.277 141.674C98.7361 141.674 96.4808 141.251 94.5106 140.404C92.5577 139.54 91.011 138.243 89.8703 136.515C88.747 134.77 88.1853 132.584 88.1853 129.957C88.1853 127.745 88.5742 125.878 89.3519 124.357C90.1296 122.836 91.2011 121.601 92.5664 120.65C93.9317 119.7 95.5043 118.982 97.2844 118.499C99.0645 117.997 100.966 117.66 102.988 117.488C105.251 117.28 107.075 117.064 108.457 116.839C109.84 116.598 110.842 116.261 111.464 115.828C112.104 115.379 112.424 114.748 112.424 113.936V113.806C112.424 112.476 111.966 111.447 111.05 110.722C110.134 109.996 108.898 109.633 107.343 109.633C105.666 109.633 104.318 109.996 103.299 110.722C102.279 111.447 101.631 112.45 101.354 113.729L89.663 113.314C90.0086 110.894 90.8986 108.734 92.3331 106.833C93.7848 104.915 95.7722 103.411 98.2954 102.322C100.836 101.216 103.886 100.663 107.446 100.663C109.987 100.663 112.329 100.966 114.472 101.571C116.615 102.158 118.481 103.022 120.071 104.163C121.661 105.286 122.888 106.669 123.752 108.311C124.633 109.953 125.074 111.828 125.074 113.936V141H113.149V135.452H112.838C112.13 136.8 111.222 137.941 110.116 138.874C109.028 139.808 107.74 140.507 106.254 140.974C104.785 141.441 103.126 141.674 101.277 141.674ZM105.191 133.379C106.556 133.379 107.783 133.102 108.872 132.549C109.978 131.996 110.86 131.236 111.516 130.268C112.173 129.283 112.501 128.142 112.501 126.846V123.061C112.138 123.251 111.698 123.424 111.179 123.58C110.678 123.735 110.125 123.882 109.52 124.02C108.915 124.158 108.293 124.279 107.654 124.383C107.014 124.487 106.401 124.582 105.813 124.668C104.621 124.858 103.601 125.152 102.754 125.55C101.925 125.947 101.285 126.466 100.836 127.105C100.404 127.727 100.188 128.47 100.188 129.335C100.188 130.648 100.654 131.65 101.588 132.342C102.538 133.033 103.739 133.379 105.191 133.379ZM145.502 118.291V141H132.825V101.182H144.88V108.492H145.32C146.202 106.055 147.705 104.146 149.831 102.763C151.957 101.363 154.488 100.663 157.426 100.663C160.226 100.663 162.654 101.294 164.711 102.556C166.785 103.8 168.392 105.546 169.533 107.792C170.691 110.022 171.261 112.631 171.244 115.621V141H158.567V118.11C158.584 115.898 158.023 114.169 156.882 112.925C155.759 111.681 154.195 111.059 152.19 111.059C150.859 111.059 149.684 111.352 148.664 111.94C147.662 112.51 146.884 113.331 146.331 114.403C145.796 115.474 145.519 116.77 145.502 118.291ZM190.524 130.553L190.576 115.44H192.339L203.538 101.182H217.899L201.256 121.609H197.912L190.524 130.553ZM179.092 141V87.9091H191.768V141H179.092ZM203.823 141L193.402 124.461L201.749 115.466L218.469 141H203.823ZM286.311 107.144H273.349C273.176 105.813 272.822 104.612 272.286 103.541C271.75 102.469 271.042 101.553 270.16 100.793C269.279 100.033 268.233 99.4536 267.024 99.0561C265.831 98.6413 264.509 98.4339 263.057 98.4339C260.482 98.4339 258.262 99.0647 256.395 100.326C254.546 101.588 253.12 103.411 252.118 105.796C251.133 108.181 250.64 111.067 250.64 114.455C250.64 117.98 251.141 120.935 252.144 123.32C253.163 125.688 254.589 127.477 256.421 128.686C258.27 129.879 260.456 130.475 262.98 130.475C264.397 130.475 265.684 130.294 266.842 129.931C268.017 129.568 269.046 129.041 269.927 128.349C270.826 127.641 271.56 126.785 272.131 125.783C272.718 124.763 273.124 123.614 273.349 122.335L286.311 122.413C286.086 124.763 285.403 127.079 284.263 129.36C283.139 131.642 281.593 133.724 279.622 135.608C277.652 137.474 275.25 138.961 272.416 140.067C269.599 141.173 266.367 141.726 262.72 141.726C257.916 141.726 253.613 140.672 249.811 138.563C246.026 136.437 243.036 133.344 240.841 129.283C238.646 125.221 237.549 120.279 237.549 114.455C237.549 108.613 238.664 103.662 240.893 99.6005C243.122 95.5392 246.138 92.4543 249.94 90.3459C253.742 88.2375 258.002 87.1832 262.72 87.1832C265.935 87.1832 268.907 87.6326 271.638 88.5312C274.369 89.4126 276.771 90.7088 278.845 92.4197C280.919 94.1134 282.604 96.1959 283.9 98.6673C285.196 101.139 286 103.964 286.311 107.144ZM306.33 118.291V141H293.653V87.9091H305.915V108.492H306.356C307.254 106.038 308.723 104.12 310.763 102.737C312.819 101.355 315.334 100.663 318.306 100.663C321.106 100.663 323.543 101.286 325.617 102.53C327.691 103.757 329.298 105.494 330.439 107.74C331.596 109.987 332.167 112.614 332.149 115.621V141H319.473V118.11C319.49 115.898 318.937 114.169 317.814 112.925C316.691 111.681 315.109 111.059 313.07 111.059C311.739 111.059 310.564 111.352 309.544 111.94C308.542 112.51 307.756 113.331 307.185 114.403C306.632 115.474 306.347 116.77 306.33 118.291ZM365.753 123.813V101.182H378.403V141H366.323V133.586H365.908C365.027 136.023 363.523 137.958 361.397 139.393C359.289 140.81 356.74 141.518 353.75 141.518C351.037 141.518 348.652 140.896 346.595 139.652C344.539 138.408 342.94 136.671 341.799 134.441C340.659 132.195 340.08 129.568 340.063 126.561V101.182H352.739V124.072C352.756 126.232 353.327 127.935 354.45 129.179C355.573 130.423 357.103 131.045 359.038 131.045C360.3 131.045 361.432 130.769 362.434 130.216C363.454 129.646 364.258 128.825 364.845 127.753C365.45 126.664 365.753 125.351 365.753 123.813ZM386.472 141V101.182H398.785V108.44H399.2C399.926 105.813 401.11 103.861 402.752 102.582C404.393 101.286 406.303 100.637 408.481 100.637C409.068 100.637 409.673 100.681 410.295 100.767C410.917 100.836 411.496 100.949 412.032 101.104V112.121C411.427 111.914 410.632 111.75 409.647 111.629C408.679 111.508 407.815 111.447 407.055 111.447C405.551 111.447 404.195 111.784 402.985 112.458C401.792 113.115 400.851 114.04 400.159 115.232C399.485 116.407 399.148 117.79 399.148 119.38V141H386.472ZM429.874 118.291V141H417.197V101.182H429.252V108.492H429.692C430.574 106.055 432.077 104.146 434.203 102.763C436.329 101.363 438.861 100.663 441.799 100.663C444.598 100.663 447.026 101.294 449.083 102.556C451.157 103.8 452.764 105.546 453.905 107.792C455.063 110.022 455.633 112.631 455.616 115.621V141H442.939V118.11C442.956 115.898 442.395 114.169 441.254 112.925C440.131 111.681 438.567 111.059 436.562 111.059C435.231 111.059 434.056 111.352 433.036 111.94C432.034 112.51 431.256 113.331 430.703 114.403C430.168 115.474 429.891 116.77 429.874 118.291ZM490.632 141H476.84L494.753 87.9091H511.837L529.75 141H515.959L503.489 101.286H503.075L490.632 141ZM488.791 120.106H517.618V129.853H488.791V120.106ZM548.142 118.291V141H535.466V101.182H547.52V108.492H547.961C548.842 106.055 550.346 104.146 552.472 102.763C554.597 101.363 557.129 100.663 560.067 100.663C562.867 100.663 565.295 101.294 567.352 102.556C569.425 103.8 571.033 105.546 572.173 107.792C573.331 110.022 573.901 112.631 573.884 115.621V141H561.208V118.11C561.225 115.898 560.663 114.169 559.523 112.925C558.399 111.681 556.835 111.059 554.831 111.059C553.5 111.059 552.325 111.352 551.305 111.94C550.303 112.51 549.525 113.331 548.972 114.403C548.436 115.474 548.16 116.77 548.142 118.291ZM592.957 141.674C590.417 141.674 588.161 141.251 586.191 140.404C584.238 139.54 582.692 138.243 581.551 136.515C580.428 134.77 579.866 132.584 579.866 129.957C579.866 127.745 580.255 125.878 581.033 124.357C581.81 122.836 582.882 121.601 584.247 120.65C585.612 119.7 587.185 118.982 588.965 118.499C590.745 117.997 592.646 117.66 594.668 117.488C596.932 117.28 598.755 117.064 600.138 116.839C601.521 116.598 602.523 116.261 603.145 115.828C603.785 115.379 604.104 114.748 604.104 113.936V113.806C604.104 112.476 603.646 111.447 602.73 110.722C601.814 109.996 600.579 109.633 599.023 109.633C597.347 109.633 595.999 109.996 594.979 110.722C593.96 111.447 593.312 112.45 593.035 113.729L581.344 113.314C581.689 110.894 582.579 108.734 584.014 106.833C585.465 104.915 587.453 103.411 589.976 102.322C592.517 101.216 595.567 100.663 599.127 100.663C601.667 100.663 604.009 100.966 606.152 101.571C608.295 102.158 610.162 103.022 611.752 104.163C613.342 105.286 614.569 106.669 615.433 108.311C616.314 109.953 616.755 111.828 616.755 113.936V141H604.83V135.452H604.519C603.81 136.8 602.903 137.941 601.797 138.874C600.708 139.808 599.421 140.507 597.935 140.974C596.466 141.441 594.806 141.674 592.957 141.674ZM596.872 133.379C598.237 133.379 599.464 133.102 600.553 132.549C601.659 131.996 602.54 131.236 603.197 130.268C603.854 129.283 604.182 128.142 604.182 126.846V123.061C603.819 123.251 603.378 123.424 602.86 123.58C602.359 123.735 601.806 123.882 601.201 124.02C600.596 124.158 599.974 124.279 599.334 124.383C598.695 124.487 598.081 124.582 597.494 124.668C596.301 124.858 595.282 125.152 594.435 125.55C593.605 125.947 592.966 126.466 592.517 127.105C592.085 127.727 591.868 128.47 591.868 129.335C591.868 130.648 592.335 131.65 593.268 132.342C594.219 133.033 595.42 133.379 596.872 133.379ZM637.182 87.9091V141H624.506V87.9091H637.182ZM653.002 155.932C651.481 155.932 650.047 155.811 648.699 155.569C647.351 155.344 646.193 155.042 645.225 154.662L648.025 145.459C649.269 145.874 650.392 146.116 651.395 146.185C652.414 146.254 653.287 146.09 654.013 145.692C654.756 145.312 655.327 144.629 655.724 143.644L656.217 142.452L642.062 101.182H655.335L662.671 129.594H663.086L670.526 101.182H683.877L668.867 144.811C668.141 146.988 667.113 148.907 665.782 150.566C664.469 152.242 662.767 153.556 660.675 154.506C658.602 155.457 656.044 155.932 653.002 155.932ZM723.5 113.34L711.861 113.651C711.74 112.821 711.412 112.087 710.876 111.447C710.34 110.791 709.64 110.281 708.776 109.918C707.929 109.538 706.944 109.348 705.821 109.348C704.352 109.348 703.099 109.641 702.062 110.229C701.042 110.817 700.541 111.612 700.558 112.614C700.541 113.392 700.852 114.066 701.492 114.636C702.148 115.206 703.315 115.664 704.991 116.01L712.665 117.462C716.639 118.222 719.595 119.484 721.53 121.246C723.483 123.009 724.468 125.342 724.486 128.246C724.468 130.976 723.656 133.353 722.049 135.375C720.459 137.397 718.281 138.969 715.516 140.093C712.751 141.199 709.588 141.752 706.028 141.752C700.342 141.752 695.858 140.585 692.574 138.252C689.308 135.902 687.441 132.756 686.975 128.816L699.496 128.505C699.772 129.957 700.489 131.063 701.647 131.823C702.805 132.584 704.283 132.964 706.08 132.964C707.705 132.964 709.027 132.661 710.046 132.056C711.066 131.452 711.584 130.648 711.602 129.646C711.584 128.747 711.187 128.03 710.409 127.494C709.632 126.941 708.413 126.509 706.754 126.198L699.807 124.876C695.814 124.15 692.842 122.81 690.889 120.858C688.936 118.887 687.968 116.382 687.986 113.34C687.968 110.678 688.677 108.406 690.111 106.522C691.546 104.621 693.585 103.169 696.229 102.167C698.873 101.165 701.993 100.663 705.587 100.663C710.98 100.663 715.231 101.795 718.342 104.059C721.453 106.306 723.172 109.4 723.5 113.34ZM730.727 141V101.182H743.403V141H730.727ZM737.078 96.5415C735.298 96.5415 733.768 95.954 732.489 94.7788C731.211 93.5863 730.571 92.1519 730.571 90.4755C730.571 88.8164 731.211 87.3993 732.489 86.2241C733.768 85.0316 735.298 84.4354 737.078 84.4354C738.875 84.4354 740.405 85.0316 741.666 86.2241C742.945 87.3993 743.585 88.8164 743.585 90.4755C743.585 92.1519 742.945 93.5863 741.666 94.7788C740.405 95.954 738.875 96.5415 737.078 96.5415ZM786.235 113.34L774.595 113.651C774.474 112.821 774.146 112.087 773.61 111.447C773.074 110.791 772.375 110.281 771.51 109.918C770.664 109.538 769.679 109.348 768.555 109.348C767.086 109.348 765.833 109.641 764.796 110.229C763.777 110.817 763.275 111.612 763.293 112.614C763.275 113.392 763.587 114.066 764.226 114.636C764.883 115.206 766.049 115.664 767.726 116.01L775.399 117.462C779.374 118.222 782.329 119.484 784.265 121.246C786.218 123.009 787.203 125.342 787.22 128.246C787.203 130.976 786.39 133.353 784.783 135.375C783.193 137.397 781.016 138.969 778.25 140.093C775.485 141.199 772.323 141.752 768.763 141.752C763.077 141.752 758.592 140.585 755.308 138.252C752.042 135.902 750.176 132.756 749.709 128.816L762.23 128.505C762.506 129.957 763.224 131.063 764.382 131.823C765.539 132.584 767.017 132.964 768.814 132.964C770.439 132.964 771.761 132.661 772.781 132.056C773.8 131.452 774.319 130.648 774.336 129.646C774.319 128.747 773.921 128.03 773.144 127.494C772.366 126.941 771.148 126.509 769.488 126.198L762.541 124.876C758.549 124.15 755.576 122.81 753.623 120.858C751.67 118.887 750.703 116.382 750.72 113.34C750.703 110.678 751.411 108.406 752.846 106.522C754.28 104.621 756.319 103.169 758.964 102.167C761.608 101.165 764.727 100.663 768.322 100.663C773.714 100.663 777.965 101.795 781.076 104.059C784.187 106.306 785.907 109.4 786.235 113.34ZM150.603 244V200.364H167.819C171.115 200.364 173.927 200.953 176.257 202.132C178.6 203.297 180.383 204.952 181.605 207.097C182.84 209.227 183.458 211.734 183.458 214.618C183.458 217.516 182.833 220.009 181.583 222.097C180.333 224.17 178.522 225.761 176.15 226.869C173.792 227.977 170.937 228.531 167.585 228.531H156.058V221.116H166.093C167.855 221.116 169.318 220.875 170.482 220.392C171.647 219.909 172.514 219.185 173.082 218.219C173.664 217.253 173.955 216.053 173.955 214.618C173.955 213.169 173.664 211.947 173.082 210.953C172.514 209.959 171.64 209.206 170.461 208.695C169.296 208.169 167.826 207.906 166.051 207.906H159.829V244H150.603ZM174.169 224.142L185.014 244H174.829L164.218 224.142H174.169ZM204.195 244.639C200.829 244.639 197.931 243.957 195.502 242.594C193.087 241.216 191.226 239.27 189.92 236.756C188.613 234.227 187.959 231.237 187.959 227.786C187.959 224.419 188.613 221.464 189.92 218.922C191.226 216.379 193.066 214.398 195.438 212.977C197.824 211.557 200.623 210.847 203.833 210.847C205.992 210.847 208.002 211.195 209.863 211.891C211.738 212.572 213.371 213.602 214.763 214.98C216.17 216.358 217.263 218.091 218.045 220.179C218.826 222.253 219.216 224.682 219.216 227.466V229.959H191.581V224.334H210.672C210.672 223.027 210.388 221.869 209.82 220.861C209.252 219.852 208.464 219.064 207.455 218.496C206.461 217.913 205.303 217.622 203.982 217.622C202.604 217.622 201.383 217.942 200.317 218.581C199.266 219.206 198.442 220.051 197.846 221.116C197.249 222.168 196.944 223.339 196.93 224.632V229.98C196.93 231.599 197.228 232.999 197.824 234.178C198.435 235.357 199.295 236.266 200.403 236.905C201.51 237.544 202.824 237.864 204.344 237.864C205.353 237.864 206.276 237.722 207.114 237.438C207.952 237.153 208.67 236.727 209.266 236.159C209.863 235.591 210.317 234.895 210.63 234.071L219.025 234.625C218.599 236.642 217.725 238.403 216.404 239.909C215.097 241.401 213.407 242.565 211.333 243.403C209.273 244.227 206.894 244.639 204.195 244.639ZM225.14 256.273V211.273H234.089V216.77H234.493C234.891 215.889 235.466 214.994 236.219 214.085C236.986 213.162 237.981 212.395 239.202 211.784C240.438 211.159 241.972 210.847 243.805 210.847C246.191 210.847 248.393 211.472 250.41 212.722C252.427 213.957 254.039 215.825 255.246 218.325C256.454 220.811 257.057 223.929 257.057 227.679C257.057 231.33 256.468 234.412 255.289 236.926C254.124 239.426 252.533 241.322 250.516 242.615C248.513 243.893 246.269 244.533 243.783 244.533C242.022 244.533 240.523 244.241 239.287 243.659C238.066 243.077 237.064 242.345 236.283 241.464C235.502 240.57 234.905 239.668 234.493 238.759H234.216V256.273H225.14ZM234.025 227.636C234.025 229.582 234.295 231.28 234.834 232.729C235.374 234.178 236.155 235.307 237.178 236.116C238.201 236.912 239.444 237.31 240.907 237.31C242.384 237.31 243.634 236.905 244.657 236.095C245.68 235.271 246.454 234.135 246.979 232.686C247.519 231.223 247.789 229.54 247.789 227.636C247.789 225.747 247.526 224.085 247.001 222.651C246.475 221.216 245.701 220.094 244.678 219.284C243.655 218.474 242.398 218.07 240.907 218.07C239.43 218.07 238.18 218.46 237.157 219.241C236.148 220.023 235.374 221.131 234.834 222.565C234.295 224 234.025 225.69 234.025 227.636ZM277.895 244.639C274.586 244.639 271.724 243.936 269.309 242.53C266.908 241.109 265.055 239.135 263.748 236.607C262.441 234.064 261.787 231.116 261.787 227.764C261.787 224.384 262.441 221.429 263.748 218.901C265.055 216.358 266.908 214.384 269.309 212.977C271.724 211.557 274.586 210.847 277.895 210.847C281.205 210.847 284.06 211.557 286.461 212.977C288.876 214.384 290.736 216.358 292.043 218.901C293.35 221.429 294.003 224.384 294.003 227.764C294.003 231.116 293.35 234.064 292.043 236.607C290.736 239.135 288.876 241.109 286.461 242.53C284.06 243.936 281.205 244.639 277.895 244.639ZM277.938 237.608C279.444 237.608 280.701 237.182 281.709 236.33C282.718 235.463 283.478 234.284 283.989 232.793C284.515 231.301 284.778 229.604 284.778 227.7C284.778 225.797 284.515 224.099 283.989 222.608C283.478 221.116 282.718 219.937 281.709 219.071C280.701 218.205 279.444 217.771 277.938 217.771C276.418 217.771 275.14 218.205 274.103 219.071C273.08 219.937 272.306 221.116 271.78 222.608C271.269 224.099 271.013 225.797 271.013 227.7C271.013 229.604 271.269 231.301 271.78 232.793C272.306 234.284 273.08 235.463 274.103 236.33C275.14 237.182 276.418 237.608 277.938 237.608ZM299.905 244V211.273H308.705V216.983H309.046C309.643 214.952 310.644 213.418 312.05 212.381C313.456 211.33 315.076 210.804 316.908 210.804C317.363 210.804 317.853 210.832 318.378 210.889C318.904 210.946 319.366 211.024 319.763 211.124V219.178C319.337 219.05 318.748 218.936 317.995 218.837C317.242 218.737 316.553 218.688 315.928 218.688C314.593 218.688 313.4 218.979 312.349 219.561C311.312 220.129 310.488 220.925 309.877 221.947C309.28 222.97 308.982 224.149 308.982 225.484V244H299.905ZM343.504 211.273V218.091H323.796V211.273H343.504ZM328.27 203.432H337.347V233.943C337.347 234.781 337.475 235.435 337.73 235.903C337.986 236.358 338.341 236.678 338.796 236.862C339.264 237.047 339.804 237.139 340.415 237.139C340.841 237.139 341.267 237.104 341.693 237.033C342.119 236.947 342.446 236.884 342.673 236.841L344.101 243.595C343.646 243.737 343.007 243.901 342.183 244.085C341.36 244.284 340.358 244.405 339.179 244.447C336.992 244.533 335.074 244.241 333.426 243.574C331.793 242.906 330.521 241.869 329.612 240.463C328.703 239.057 328.256 237.281 328.27 235.136V203.432ZM378.943 244H363.474V200.364H379.071C383.46 200.364 387.238 201.237 390.406 202.984C393.574 204.717 396.01 207.21 397.714 210.463C399.433 213.716 400.292 217.608 400.292 222.139C400.292 226.685 399.433 230.591 397.714 233.858C396.01 237.125 393.559 239.632 390.363 241.379C387.182 243.126 383.375 244 378.943 244ZM372.7 236.095H378.559C381.287 236.095 383.581 235.612 385.442 234.646C387.317 233.666 388.723 232.153 389.66 230.108C390.612 228.048 391.088 225.392 391.088 222.139C391.088 218.915 390.612 216.28 389.66 214.234C388.723 212.189 387.324 210.683 385.463 209.717C383.602 208.751 381.308 208.268 378.581 208.268H372.7V236.095ZM416.289 244.618C414.2 244.618 412.34 244.256 410.706 243.531C409.073 242.793 407.78 241.706 406.828 240.271C405.891 238.822 405.422 237.018 405.422 234.859C405.422 233.041 405.756 231.514 406.423 230.278C407.091 229.043 408 228.048 409.151 227.295C410.301 226.543 411.608 225.974 413.071 225.591C414.548 225.207 416.097 224.938 417.716 224.781C419.619 224.582 421.154 224.398 422.318 224.227C423.483 224.043 424.328 223.773 424.854 223.418C425.379 223.062 425.642 222.537 425.642 221.841V221.713C425.642 220.364 425.216 219.32 424.364 218.581C423.526 217.842 422.333 217.473 420.784 217.473C419.151 217.473 417.851 217.835 416.885 218.56C415.919 219.27 415.28 220.165 414.968 221.244L406.573 220.562C406.999 218.574 407.837 216.855 409.087 215.406C410.337 213.943 411.949 212.821 413.923 212.04C415.912 211.244 418.213 210.847 420.827 210.847C422.645 210.847 424.385 211.06 426.047 211.486C427.723 211.912 429.208 212.572 430.5 213.467C431.807 214.362 432.837 215.513 433.59 216.919C434.343 218.311 434.719 219.98 434.719 221.926V244H426.111V239.462H425.855C425.33 240.484 424.627 241.386 423.746 242.168C422.865 242.935 421.807 243.538 420.571 243.979C419.335 244.405 417.908 244.618 416.289 244.618ZM418.888 238.354C420.223 238.354 421.402 238.091 422.425 237.565C423.448 237.026 424.25 236.301 424.833 235.392C425.415 234.483 425.706 233.453 425.706 232.303V228.83C425.422 229.014 425.031 229.185 424.534 229.341C424.051 229.483 423.504 229.618 422.894 229.746C422.283 229.859 421.672 229.966 421.061 230.065C420.45 230.151 419.896 230.229 419.399 230.3C418.334 230.456 417.404 230.705 416.608 231.045C415.813 231.386 415.195 231.848 414.754 232.43C414.314 232.999 414.094 233.709 414.094 234.561C414.094 235.797 414.541 236.741 415.436 237.395C416.345 238.034 417.496 238.354 418.888 238.354ZM468.991 220.605L460.681 221.116C460.539 220.406 460.234 219.767 459.765 219.199C459.296 218.616 458.678 218.155 457.911 217.814C457.159 217.459 456.257 217.281 455.205 217.281C453.799 217.281 452.613 217.58 451.647 218.176C450.681 218.759 450.198 219.54 450.198 220.52C450.198 221.301 450.511 221.962 451.136 222.501C451.761 223.041 452.833 223.474 454.353 223.801L460.276 224.994C463.458 225.648 465.83 226.699 467.393 228.148C468.955 229.597 469.737 231.5 469.737 233.858C469.737 236.003 469.105 237.885 467.84 239.504C466.59 241.124 464.872 242.388 462.684 243.297C460.511 244.192 458.004 244.639 455.163 244.639C450.83 244.639 447.379 243.737 444.808 241.933C442.251 240.115 440.752 237.643 440.312 234.518L449.24 234.05C449.509 235.371 450.163 236.379 451.2 237.075C452.237 237.757 453.565 238.098 455.184 238.098C456.775 238.098 458.053 237.793 459.019 237.182C459.999 236.557 460.497 235.754 460.511 234.774C460.497 233.95 460.149 233.276 459.467 232.75C458.785 232.21 457.734 231.798 456.313 231.514L450.646 230.385C447.45 229.746 445.07 228.638 443.508 227.061C441.96 225.484 441.186 223.474 441.186 221.031C441.186 218.929 441.754 217.118 442.89 215.598C444.041 214.078 445.653 212.906 447.727 212.082C449.815 211.259 452.258 210.847 455.056 210.847C459.19 210.847 462.443 211.72 464.815 213.467C467.201 215.214 468.593 217.594 468.991 220.605ZM484.529 225.08V244H475.452V200.364H484.273V217.047H484.657C485.395 215.115 486.589 213.602 488.236 212.509C489.884 211.401 491.951 210.847 494.437 210.847C496.709 210.847 498.691 211.344 500.381 212.338C502.086 213.318 503.407 214.732 504.344 216.578C505.296 218.411 505.765 220.605 505.751 223.162V244H496.674V224.781C496.688 222.764 496.177 221.195 495.14 220.072C494.117 218.95 492.682 218.389 490.836 218.389C489.6 218.389 488.506 218.652 487.555 219.178C486.617 219.703 485.878 220.47 485.339 221.479C484.813 222.473 484.543 223.673 484.529 225.08ZM513.064 244V200.364H522.141V216.77H522.418C522.816 215.889 523.391 214.994 524.144 214.085C524.911 213.162 525.905 212.395 527.127 211.784C528.362 211.159 529.896 210.847 531.729 210.847C534.115 210.847 536.317 211.472 538.334 212.722C540.351 213.957 541.963 215.825 543.171 218.325C544.378 220.811 544.982 223.929 544.982 227.679C544.982 231.33 544.392 234.412 543.213 236.926C542.048 239.426 540.458 241.322 538.441 242.615C536.438 243.893 534.193 244.533 531.708 244.533C529.946 244.533 528.448 244.241 527.212 243.659C525.99 243.077 524.989 242.345 524.208 241.464C523.426 240.57 522.83 239.668 522.418 238.759H522.013V244H513.064ZM521.949 227.636C521.949 229.582 522.219 231.28 522.759 232.729C523.298 234.178 524.08 235.307 525.102 236.116C526.125 236.912 527.368 237.31 528.831 237.31C530.308 237.31 531.558 236.905 532.581 236.095C533.604 235.271 534.378 234.135 534.904 232.686C535.443 231.223 535.713 229.54 535.713 227.636C535.713 225.747 535.45 224.085 534.925 222.651C534.399 221.216 533.625 220.094 532.602 219.284C531.58 218.474 530.323 218.07 528.831 218.07C527.354 218.07 526.104 218.46 525.081 219.241C524.073 220.023 523.298 221.131 522.759 222.565C522.219 224 521.949 225.69 521.949 227.636ZM565.825 244.639C562.515 244.639 559.653 243.936 557.238 242.53C554.838 241.109 552.984 239.135 551.677 236.607C550.371 234.064 549.717 231.116 549.717 227.764C549.717 224.384 550.371 221.429 551.677 218.901C552.984 216.358 554.838 214.384 557.238 212.977C559.653 211.557 562.515 210.847 565.825 210.847C569.135 210.847 571.99 211.557 574.39 212.977C576.805 214.384 578.666 216.358 579.973 218.901C581.28 221.429 581.933 224.384 581.933 227.764C581.933 231.116 581.28 234.064 579.973 236.607C578.666 239.135 576.805 241.109 574.39 242.53C571.99 243.936 569.135 244.639 565.825 244.639ZM565.868 237.608C567.373 237.608 568.631 237.182 569.639 236.33C570.648 235.463 571.407 234.284 571.919 232.793C572.444 231.301 572.707 229.604 572.707 227.7C572.707 225.797 572.444 224.099 571.919 222.608C571.407 221.116 570.648 219.937 569.639 219.071C568.631 218.205 567.373 217.771 565.868 217.771C564.348 217.771 563.069 218.205 562.032 219.071C561.01 219.937 560.236 221.116 559.71 222.608C559.199 224.099 558.943 225.797 558.943 227.7C558.943 229.604 559.199 231.301 559.71 232.793C560.236 234.284 561.01 235.463 562.032 236.33C563.069 237.182 564.348 237.608 565.868 237.608ZM597.167 244.618C595.079 244.618 593.219 244.256 591.585 243.531C589.952 242.793 588.659 241.706 587.707 240.271C586.77 238.822 586.301 237.018 586.301 234.859C586.301 233.041 586.635 231.514 587.302 230.278C587.97 229.043 588.879 228.048 590.03 227.295C591.18 226.543 592.487 225.974 593.95 225.591C595.427 225.207 596.976 224.938 598.595 224.781C600.498 224.582 602.032 224.398 603.197 224.227C604.362 224.043 605.207 223.773 605.733 223.418C606.258 223.062 606.521 222.537 606.521 221.841V221.713C606.521 220.364 606.095 219.32 605.243 218.581C604.405 217.842 603.211 217.473 601.663 217.473C600.03 217.473 598.73 217.835 597.764 218.56C596.798 219.27 596.159 220.165 595.846 221.244L587.452 220.562C587.878 218.574 588.716 216.855 589.966 215.406C591.216 213.943 592.828 212.821 594.802 212.04C596.791 211.244 599.092 210.847 601.706 210.847C603.524 210.847 605.264 211.06 606.926 211.486C608.602 211.912 610.086 212.572 611.379 213.467C612.686 214.362 613.716 215.513 614.469 216.919C615.221 218.311 615.598 219.98 615.598 221.926V244H606.99V239.462H606.734C606.209 240.484 605.506 241.386 604.625 242.168C603.744 242.935 602.686 243.538 601.45 243.979C600.214 244.405 598.787 244.618 597.167 244.618ZM599.767 238.354C601.102 238.354 602.281 238.091 603.304 237.565C604.327 237.026 605.129 236.301 605.711 235.392C606.294 234.483 606.585 233.453 606.585 232.303V228.83C606.301 229.014 605.91 229.185 605.413 229.341C604.93 229.483 604.383 229.618 603.773 229.746C603.162 229.859 602.551 229.966 601.94 230.065C601.329 230.151 600.775 230.229 600.278 230.3C599.213 230.456 598.282 230.705 597.487 231.045C596.692 231.386 596.074 231.848 595.633 232.43C595.193 232.999 594.973 233.709 594.973 234.561C594.973 235.797 595.42 236.741 596.315 237.395C597.224 238.034 598.375 238.354 599.767 238.354ZM622.64 244V211.273H631.439V216.983H631.78C632.377 214.952 633.378 213.418 634.785 212.381C636.191 211.33 637.81 210.804 639.643 210.804C640.097 210.804 640.587 210.832 641.113 210.889C641.638 210.946 642.1 211.024 642.498 211.124V219.178C642.072 219.05 641.482 218.936 640.729 218.837C639.976 218.737 639.287 218.688 638.662 218.688C637.327 218.688 636.134 218.979 635.083 219.561C634.046 220.129 633.222 220.925 632.611 221.947C632.015 222.97 631.716 224.149 631.716 225.484V244H622.64ZM657.727 244.533C655.241 244.533 652.99 243.893 650.972 242.615C648.97 241.322 647.379 239.426 646.2 236.926C645.035 234.412 644.453 231.33 644.453 227.679C644.453 223.929 645.056 220.811 646.264 218.325C647.471 215.825 649.076 213.957 651.079 212.722C653.096 211.472 655.305 210.847 657.705 210.847C659.538 210.847 661.065 211.159 662.286 211.784C663.522 212.395 664.517 213.162 665.269 214.085C666.036 214.994 666.619 215.889 667.017 216.77H667.294V200.364H676.349V244H667.4V238.759H667.017C666.59 239.668 665.987 240.57 665.205 241.464C664.438 242.345 663.437 243.077 662.201 243.659C660.98 244.241 659.488 244.533 657.727 244.533ZM660.603 237.31C662.066 237.31 663.302 236.912 664.311 236.116C665.333 235.307 666.115 234.178 666.654 232.729C667.208 231.28 667.485 229.582 667.485 227.636C667.485 225.69 667.215 224 666.676 222.565C666.136 221.131 665.355 220.023 664.332 219.241C663.309 218.46 662.066 218.07 660.603 218.07C659.112 218.07 657.855 218.474 656.832 219.284C655.809 220.094 655.035 221.216 654.509 222.651C653.984 224.085 653.721 225.747 653.721 227.636C653.721 229.54 653.984 231.223 654.509 232.686C655.049 234.135 655.823 235.271 656.832 236.095C657.855 236.905 659.112 237.31 660.603 237.31Z" fill="#212121"/>
</g>
<g filter="url(#filter16_d_23_3)">
<rect x="1555" y="356" width="495" height="445" rx="30" fill="#C4C4C4"/>
</g>
<g filter="url(#filter17_di_23_3)">
<rect x="1578" y="365.292" width="448.462" height="435.442" rx="15" fill="#F1EBEB"/>
</g>
<g filter="url(#filter18_d_23_3)">
<rect x="1043" y="356" width="495" height="445" rx="30" fill="#C4C4C4"/>
</g>
<g filter="url(#filter19_di_23_3)">
<rect x="1066" y="365.292" width="448.462" height="435.442" rx="15" fill="#F1EBEB"/>
</g>
<g filter="url(#filter20_di_23_3)">
<rect x="19" y="823" width="615" height="579" rx="30" fill="#D9D9D9"/>
</g>
<g filter="url(#filter21_dii_23_3)">
<rect x="19" y="823" width="610" height="574" rx="30" fill="#FDF9F9"/>
</g>
<g filter="url(#filter22_di_23_3)">
<rect x="656" y="823" width="615" height="579" rx="30" fill="#D9D9D9"/>
</g>
<g filter="url(#filter23_dii_23_3)">
<rect x="656" y="823" width="610" height="574" rx="30" fill="#FDF9F9"/>
</g>
<g filter="url(#filter24_di_23_3)">
<rect x="1293" y="823" width="615" height="579" rx="30" fill="#D9D9D9"/>
</g>
<g filter="url(#filter25_dii_23_3)">
<rect x="1293" y="823" width="610" height="574" rx="30" fill="#FDF9F9"/>
</g>
<g filter="url(#filter26_di_23_3)">
<rect x="1930" y="823" width="615" height="579" rx="30" fill="#D9D9D9"/>
</g>
<g filter="url(#filter27_dii_23_3)">
<rect x="1930" y="823" width="610" height="574" rx="30" fill="#FDF9F9"/>
</g>
<defs>
<filter id="filter0_d_23_3" x="531" y="347" width="515" height="474" filterUnits="userSpaceOnUse" color-interpolation-filters="sRGB">
<feFlood flood-opacity="0" result="BackgroundImageFix"/>
<feColorMatrix in="SourceAlpha" type="matrix" values="0 0 0 0 0 0 0 0 0 0 0 0 0 0 0 0 0 0 127 0" result="hardAlpha"/>
<feOffset dx="10" dy="10"/>
<feGaussianBlur stdDeviation="5"/>
<feComposite in2="hardAlpha" operator="out"/>
<feColorMatrix type="matrix" values="0 0 0 0 0 0 0 0 0 0 0 0 0 0 0 0 0 0 0.25 0"/>
<feBlend mode="normal" in2="BackgroundImageFix" result="effect1_dropShadow_23_3"/>
<feBlend mode="normal" in="SourceGraphic" in2="effect1_dropShadow_23_3" result="shape"/>
</filter>
<filter id="filter1_di_23_3" x="552" y="354.48" width="460.462" height="456.248" filterUnits="userSpaceOnUse" color-interpolation-filters="sRGB">
<feFlood flood-opacity="0" result="BackgroundImageFix"/>
<feColorMatrix in="SourceAlpha" type="matrix" values="0 0 0 0 0 0 0 0 0 0 0 0 0 0 0 0 0 0 127 0" result="hardAlpha"/>
<feOffset dx="2" dy="2"/>
<feGaussianBlur stdDeviation="2"/>
<feComposite in2="hardAlpha" operator="out"/>
<feColorMatrix type="matrix" values="0 0 0 0 0 0 0 0 0 0 0 0 0 0 0 0 0 0 0.25 0"/>
<feBlend mode="normal" in2="BackgroundImageFix" result="effect1_dropShadow_23_3"/>
<feBlend mode="normal" in="SourceGraphic" in2="effect1_dropShadow_23_3" result="shape"/>
<feColorMatrix in="SourceAlpha" type="matrix" values="0 0 0 0 0 0 0 0 0 0 0 0 0 0 0 0 0 0 127 0" result="hardAlpha"/>
<feOffset dx="10" dy="10"/>
<feGaussianBlur stdDeviation="12.5"/>
<feComposite in2="hardAlpha" operator="arithmetic" k2="-1" k3="1"/>
<feColorMatrix type="matrix" values="0 0 0 0 0 0 0 0 0 0 0 0 0 0 0 0 0 0 0.25 0"/>
<feBlend mode="normal" in2="shape" result="effect2_innerShadow_23_3"/>
</filter>
<filter id="filter2_d_23_3" x="19" y="347" width="515" height="474" filterUnits="userSpaceOnUse" color-interpolation-filters="sRGB">
<feFlood flood-opacity="0" result="BackgroundImageFix"/>
<feColorMatrix in="SourceAlpha" type="matrix" values="0 0 0 0 0 0 0 0 0 0 0 0 0 0 0 0 0 0 127 0" result="hardAlpha"/>
<feOffset dx="10" dy="10"/>
<feGaussianBlur stdDeviation="5"/>
<feComposite in2="hardAlpha" operator="out"/>
<feColorMatrix type="matrix" values="0 0 0 0 0 0 0 0 0 0 0 0 0 0 0 0 0 0 0.25 0"/>
<feBlend mode="normal" in2="BackgroundImageFix" result="effect1_dropShadow_23_3"/>
<feBlend mode="normal" in="SourceGraphic" in2="effect1_dropShadow_23_3" result="shape"/>
</filter>
<filter id="filter3_di_23_3" x="40" y="354.48" width="460.462" height="456.248" filterUnits="userSpaceOnUse" color-interpolation-filters="sRGB">
<feFlood flood-opacity="0" result="BackgroundImageFix"/>
<feColorMatrix in="SourceAlpha" type="matrix" values="0 0 0 0 0 0 0 0 0 0 0 0 0 0 0 0 0 0 127 0" result="hardAlpha"/>
<feOffset dx="2" dy="2"/>
<feGaussianBlur stdDeviation="2"/>
<feComposite in2="hardAlpha" operator="out"/>
<feColorMatrix type="matrix" values="0 0 0 0 0 0 0 0 0 0 0 0 0 0 0 0 0 0 0.25 0"/>
<feBlend mode="normal" in2="BackgroundImageFix" result="effect1_dropShadow_23_3"/>
<feBlend mode="normal" in="SourceGraphic" in2="effect1_dropShadow_23_3" result="shape"/>
<feColorMatrix in="SourceAlpha" type="matrix" values="0 0 0 0 0 0 0 0 0 0 0 0 0 0 0 0 0 0 127 0" result="hardAlpha"/>
<feOffset dx="10" dy="10"/>
<feGaussianBlur stdDeviation="12.5"/>
<feComposite in2="hardAlpha" operator="arithmetic" k2="-1" k3="1"/>
<feColorMatrix type="matrix" values="0 0 0 0 0 0 0 0 0 0 0 0 0 0 0 0 0 0 0.25 0"/>
<feBlend mode="normal" in2="shape" result="effect2_innerShadow_23_3"/>
</filter>
<filter id="filter4_dii_23_3" x="11" y="24" width="2569" height="318" filterUnits="userSpaceOnUse" color-interpolation-filters="sRGB">
<feFlood flood-opacity="0" result="BackgroundImageFix"/>
<feColorMatrix in="SourceAlpha" type="matrix" values="0 0 0 0 0 0 0 0 0 0 0 0 0 0 0 0 0 0 127 0" result="hardAlpha"/>
<feOffset dx="30" dy="20"/>
<feGaussianBlur stdDeviation="2"/>
<feComposite in2="hardAlpha" operator="out"/>
<feColorMatrix type="matrix" values="0 0 0 0 0 0 0 0 0 0 0 0 0 0 0 0 0 0 0.25 0"/>
<feBlend mode="normal" in2="BackgroundImageFix" result="effect1_dropShadow_23_3"/>
<feBlend mode="normal" in="SourceGraphic" in2="effect1_dropShadow_23_3" result="shape"/>
<feColorMatrix in="SourceAlpha" type="matrix" values="0 0 0 0 0 0 0 0 0 0 0 0 0 0 0 0 0 0 127 0" result="hardAlpha"/>
<feOffset dx="8" dy="8"/>
<feGaussianBlur stdDeviation="10"/>
<feComposite in2="hardAlpha" operator="arithmetic" k2="-1" k3="1"/>
<feColorMatrix type="matrix" values="0 0 0 0 0 0 0 0 0 0 0 0 0 0 0 0 0 0 0.2 0"/>
<feBlend mode="normal" in2="shape" result="effect2_innerShadow_23_3"/>
<feColorMatrix in="SourceAlpha" type="matrix" values="0 0 0 0 0 0 0 0 0 0 0 0 0 0 0 0 0 0 127 0" result="hardAlpha"/>
<feOffset dx="-8" dy="-8"/>
<feGaussianBlur stdDeviation="4"/>
<feComposite in2="hardAlpha" operator="arithmetic" k2="-1" k3="1"/>
<feColorMatrix type="matrix" values="0 0 0 0 0 0 0 0 0 0 0 0 0 0 0 0 0 0 0.25 0"/>
<feBlend mode="normal" in2="effect2_innerShadow_23_3" result="effect3_innerShadow_23_3"/>
</filter>
<filter id="filter5_d_23_3" x="2061" y="365" width="515" height="456" filterUnits="userSpaceOnUse" color-interpolation-filters="sRGB">
<feFlood flood-opacity="0" result="BackgroundImageFix"/>
<feColorMatrix in="SourceAlpha" type="matrix" values="0 0 0 0 0 0 0 0 0 0 0 0 0 0 0 0 0 0 127 0" result="hardAlpha"/>
<feOffset dx="10" dy="10"/>
<feGaussianBlur stdDeviation="5"/>
<feComposite in2="hardAlpha" operator="out"/>
<feColorMatrix type="matrix" values="0 0 0 0 0 0 0 0 0 0 0 0 0 0 0 0 0 0 0.25 0"/>
<feBlend mode="normal" in2="BackgroundImageFix" result="effect1_dropShadow_23_3"/>
<feBlend mode="normal" in="SourceGraphic" in2="effect1_dropShadow_23_3" result="shape"/>
</filter>
<filter id="filter6_di_23_3" x="2082" y="372.104" width="460.462" height="438.635" filterUnits="userSpaceOnUse" color-interpolation-filters="sRGB">
<feFlood flood-opacity="0" result="BackgroundImageFix"/>
<feColorMatrix in="SourceAlpha" type="matrix" values="0 0 0 0 0 0 0 0 0 0 0 0 0 0 0 0 0 0 127 0" result="hardAlpha"/>
<feOffset dx="2" dy="2"/>
<feGaussianBlur stdDeviation="2"/>
<feComposite in2="hardAlpha" operator="out"/>
<feColorMatrix type="matrix" values="0 0 0 0 0 0 0 0 0 0 0 0 0 0 0 0 0 0 0.25 0"/>
<feBlend mode="normal" in2="BackgroundImageFix" result="effect1_dropShadow_23_3"/>
<feBlend mode="normal" in="SourceGraphic" in2="effect1_dropShadow_23_3" result="shape"/>
<feColorMatrix in="SourceAlpha" type="matrix" values="0 0 0 0 0 0 0 0 0 0 0 0 0 0 0 0 0 0 127 0" result="hardAlpha"/>
<feOffset dx="10" dy="10"/>
<feGaussianBlur stdDeviation="12.5"/>
<feComposite in2="hardAlpha" operator="arithmetic" k2="-1" k3="1"/>
<feColorMatrix type="matrix" values="0 0 0 0 0 0 0 0 0 0 0 0 0 0 0 0 0 0 0.25 0"/>
<feBlend mode="normal" in2="shape" result="effect2_innerShadow_23_3"/>
</filter>
<filter id="filter7_d_23_3" x="806" y="39" width="448" height="270" filterUnits="userSpaceOnUse" color-interpolation-filters="sRGB">
<feFlood flood-opacity="0" result="BackgroundImageFix"/>
<feColorMatrix in="SourceAlpha" type="matrix" values="0 0 0 0 0 0 0 0 0 0 0 0 0 0 0 0 0 0 127 0" result="hardAlpha"/>
<feOffset dx="4" dy="4"/>
<feGaussianBlur stdDeviation="4"/>
<feComposite in2="hardAlpha" operator="out"/>
<feColorMatrix type="matrix" values="0 0 0 0 0 0 0 0 0 0 0 0 0 0 0 0 0 0 0.25 0"/>
<feBlend mode="normal" in2="BackgroundImageFix" result="effect1_dropShadow_23_3"/>
<feBlend mode="normal" in="SourceGraphic" in2="effect1_dropShadow_23_3" result="shape"/>
</filter>
<filter id="filter8_iii_23_3" x="809" y="41" width="441" height="279.923" filterUnits="userSpaceOnUse" color-interpolation-filters="sRGB">
<feFlood flood-opacity="0" result="BackgroundImageFix"/>
<feBlend mode="normal" in="SourceGraphic" in2="BackgroundImageFix" result="shape"/>
<feColorMatrix in="SourceAlpha" type="matrix" values="0 0 0 0 0 0 0 0 0 0 0 0 0 0 0 0 0 0 127 0" result="hardAlpha"/>
<feOffset dx="2" dy="2"/>
<feGaussianBlur stdDeviation="2"/>
<feComposite in2="hardAlpha" operator="arithmetic" k2="-1" k3="1"/>
<feColorMatrix type="matrix" values="0 0 0 0 0 0 0 0 0 0 0 0 0 0 0 0 0 0 0.25 0"/>
<feBlend mode="normal" in2="shape" result="effect1_innerShadow_23_3"/>
<feColorMatrix in="SourceAlpha" type="matrix" values="0 0 0 0 0 0 0 0 0 0 0 0 0 0 0 0 0 0 127 0" result="hardAlpha"/>
<feOffset dx="-2" dy="-2"/>
<feGaussianBlur stdDeviation="2"/>
<feComposite in2="hardAlpha" operator="arithmetic" k2="-1" k3="1"/>
<feColorMatrix type="matrix" values="0 0 0 0 0 0 0 0 0 0 0 0 0 0 0 0 0 0 0.25 0"/>
<feBlend mode="normal" in2="effect1_innerShadow_23_3" result="effect2_innerShadow_23_3"/>
<feColorMatrix in="SourceAlpha" type="matrix" values="0 0 0 0 0 0 0 0 0 0 0 0 0 0 0 0 0 0 127 0" result="hardAlpha"/>
<feOffset dx="10" dy="30"/>
<feGaussianBlur stdDeviation="15"/>
<feComposite in2="hardAlpha" operator="arithmetic" k2="-1" k3="1"/>
<feColorMatrix type="matrix" values="0 0 0 0 0 0 0 0 0 0 0 0 0 0 0 0 0 0 0.1 0"/>
<feBlend mode="normal" in2="effect2_innerShadow_23_3" result="effect3_innerShadow_23_3"/>
</filter>
<filter id="filter9_d_23_3" x="2086" y="78" width="410" height="225" filterUnits="userSpaceOnUse" color-interpolation-filters="sRGB">
<feFlood flood-opacity="0" result="BackgroundImageFix"/>
<feColorMatrix in="SourceAlpha" type="matrix" values="0 0 0 0 0 0 0 0 0 0 0 0 0 0 0 0 0 0 127 0" result="hardAlpha"/>
<feOffset dx="4" dy="4"/>
<feGaussianBlur stdDeviation="4"/>
<feComposite in2="hardAlpha" operator="out"/>
<feColorMatrix type="matrix" values="0 0 0 0 0 0 0 0 0 0 0 0 0 0 0 0 0 0 0.25 0"/>
<feBlend mode="normal" in2="BackgroundImageFix" result="effect1_dropShadow_23_3"/>
<feBlend mode="normal" in="SourceGraphic" in2="effect1_dropShadow_23_3" result="shape"/>
</filter>
<filter id="filter10_iii_23_3" x="2088.91" y="80" width="403.264" height="236" filterUnits="userSpaceOnUse" color-interpolation-filters="sRGB">
<feFlood flood-opacity="0" result="BackgroundImageFix"/>
<feBlend mode="normal" in="SourceGraphic" in2="BackgroundImageFix" result="shape"/>
<feColorMatrix in="SourceAlpha" type="matrix" values="0 0 0 0 0 0 0 0 0 0 0 0 0 0 0 0 0 0 127 0" result="hardAlpha"/>
<feOffset dx="2" dy="2"/>
<feGaussianBlur stdDeviation="2"/>
<feComposite in2="hardAlpha" operator="arithmetic" k2="-1" k3="1"/>
<feColorMatrix type="matrix" values="0 0 0 0 0 0 0 0 0 0 0 0 0 0 0 0 0 0 0.25 0"/>
<feBlend mode="normal" in2="shape" result="effect1_innerShadow_23_3"/>
<feColorMatrix in="SourceAlpha" type="matrix" values="0 0 0 0 0 0 0 0 0 0 0 0 0 0 0 0 0 0 127 0" result="hardAlpha"/>
<feOffset dx="-2" dy="-2"/>
<feGaussianBlur stdDeviation="2"/>
<feComposite in2="hardAlpha" operator="arithmetic" k2="-1" k3="1"/>
<feColorMatrix type="matrix" values="0 0 0 0 0 0 0 0 0 0 0 0 0 0 0 0 0 0 0.25 0"/>
<feBlend mode="normal" in2="effect1_innerShadow_23_3" result="effect2_innerShadow_23_3"/>
<feColorMatrix in="SourceAlpha" type="matrix" values="0 0 0 0 0 0 0 0 0 0 0 0 0 0 0 0 0 0 127 0" result="hardAlpha"/>
<feOffset dx="10" dy="30"/>
<feGaussianBlur stdDeviation="15"/>
<feComposite in2="hardAlpha" operator="arithmetic" k2="-1" k3="1"/>
<feColorMatrix type="matrix" values="0 0 0 0 0 0 0 0 0 0 0 0 0 0 0 0 0 0 0.1 0"/>
<feBlend mode="normal" in2="effect2_innerShadow_23_3" result="effect3_innerShadow_23_3"/>
</filter>
<filter id="filter11_d_23_3" x="1698" y="72" width="375" height="225" filterUnits="userSpaceOnUse" color-interpolation-filters="sRGB">
<feFlood flood-opacity="0" result="BackgroundImageFix"/>
<feColorMatrix in="SourceAlpha" type="matrix" values="0 0 0 0 0 0 0 0 0 0 0 0 0 0 0 0 0 0 127 0" result="hardAlpha"/>
<feOffset dx="4" dy="4"/>
<feGaussianBlur stdDeviation="4"/>
<feComposite in2="hardAlpha" operator="out"/>
<feColorMatrix type="matrix" values="0 0 0 0 0 0 0 0 0 0 0 0 0 0 0 0 0 0 0.25 0"/>
<feBlend mode="normal" in2="BackgroundImageFix" result="effect1_dropShadow_23_3"/>
<feBlend mode="normal" in="SourceGraphic" in2="effect1_dropShadow_23_3" result="shape"/>
</filter>
<filter id="filter12_iii_23_3" x="1700.83" y="74" width="368.507" height="236" filterUnits="userSpaceOnUse" color-interpolation-filters="sRGB">
<feFlood flood-opacity="0" result="BackgroundImageFix"/>
<feBlend mode="normal" in="SourceGraphic" in2="BackgroundImageFix" result="shape"/>
<feColorMatrix in="SourceAlpha" type="matrix" values="0 0 0 0 0 0 0 0 0 0 0 0 0 0 0 0 0 0 127 0" result="hardAlpha"/>
<feOffset dx="2" dy="2"/>
<feGaussianBlur stdDeviation="2"/>
<feComposite in2="hardAlpha" operator="arithmetic" k2="-1" k3="1"/>
<feColorMatrix type="matrix" values="0 0 0 0 0 0 0 0 0 0 0 0 0 0 0 0 0 0 0.25 0"/>
<feBlend mode="normal" in2="shape" result="effect1_innerShadow_23_3"/>
<feColorMatrix in="SourceAlpha" type="matrix" values="0 0 0 0 0 0 0 0 0 0 0 0 0 0 0 0 0 0 127 0" result="hardAlpha"/>
<feOffset dx="-2" dy="-2"/>
<feGaussianBlur stdDeviation="2"/>
<feComposite in2="hardAlpha" operator="arithmetic" k2="-1" k3="1"/>
<feColorMatrix type="matrix" values="0 0 0 0 0 0 0 0 0 0 0 0 0 0 0 0 0 0 0.25 0"/>
<feBlend mode="normal" in2="effect1_innerShadow_23_3" result="effect2_innerShadow_23_3"/>
<feColorMatrix in="SourceAlpha" type="matrix" values="0 0 0 0 0 0 0 0 0 0 0 0 0 0 0 0 0 0 127 0" result="hardAlpha"/>
<feOffset dx="10" dy="30"/>
<feGaussianBlur stdDeviation="15"/>
<feComposite in2="hardAlpha" operator="arithmetic" k2="-1" k3="1"/>
<feColorMatrix type="matrix" values="0 0 0 0 0 0 0 0 0 0 0 0 0 0 0 0 0 0 0.1 0"/>
<feBlend mode="normal" in2="effect2_innerShadow_23_3" result="effect3_innerShadow_23_3"/>
</filter>
<filter id="filter13_d_23_3" x="1267" y="66" width="418" height="225" filterUnits="userSpaceOnUse" color-interpolation-filters="sRGB">
<feFlood flood-opacity="0" result="BackgroundImageFix"/>
<feColorMatrix in="SourceAlpha" type="matrix" values="0 0 0 0 0 0 0 0 0 0 0 0 0 0 0 0 0 0 127 0" result="hardAlpha"/>
<feOffset dx="4" dy="4"/>
<feGaussianBlur stdDeviation="4"/>
<feComposite in2="hardAlpha" operator="out"/>
<feColorMatrix type="matrix" values="0 0 0 0 0 0 0 0 0 0 0 0 0 0 0 0 0 0 0.25 0"/>
<feBlend mode="normal" in2="BackgroundImageFix" result="effect1_dropShadow_23_3"/>
<feBlend mode="normal" in="SourceGraphic" in2="effect1_dropShadow_23_3" result="shape"/>
</filter>
<filter id="filter14_iii_23_3" x="1269.93" y="68" width="411.208" height="236" filterUnits="userSpaceOnUse" color-interpolation-filters="sRGB">
<feFlood flood-opacity="0" result="BackgroundImageFix"/>
<feBlend mode="normal" in="SourceGraphic" in2="BackgroundImageFix" result="shape"/>
<feColorMatrix in="SourceAlpha" type="matrix" values="0 0 0 0 0 0 0 0 0 0 0 0 0 0 0 0 0 0 127 0" result="hardAlpha"/>
<feOffset dx="2" dy="2"/>
<feGaussianBlur stdDeviation="2"/>
<feComposite in2="hardAlpha" operator="arithmetic" k2="-1" k3="1"/>
<feColorMatrix type="matrix" values="0 0 0 0 0 0 0 0 0 0 0 0 0 0 0 0 0 0 0.25 0"/>
<feBlend mode="normal" in2="shape" result="effect1_innerShadow_23_3"/>
<feColorMatrix in="SourceAlpha" type="matrix" values="0 0 0 0 0 0 0 0 0 0 0 0 0 0 0 0 0 0 127 0" result="hardAlpha"/>
<feOffset dx="-2" dy="-2"/>
<feGaussianBlur stdDeviation="2"/>
<feComposite in2="hardAlpha" operator="arithmetic" k2="-1" k3="1"/>
<feColorMatrix type="matrix" values="0 0 0 0 0 0 0 0 0 0 0 0 0 0 0 0 0 0 0.25 0"/>
<feBlend mode="normal" in2="effect1_innerShadow_23_3" result="effect2_innerShadow_23_3"/>
<feColorMatrix in="SourceAlpha" type="matrix" values="0 0 0 0 0 0 0 0 0 0 0 0 0 0 0 0 0 0 127 0" result="hardAlpha"/>
<feOffset dx="10" dy="30"/>
<feGaussianBlur stdDeviation="15"/>
<feComposite in2="hardAlpha" operator="arithmetic" k2="-1" k3="1"/>
<feColorMatrix type="matrix" values="0 0 0 0 0 0 0 0 0 0 0 0 0 0 0 0 0 0 0.1 0"/>
<feBlend mode="normal" in2="effect2_innerShadow_23_3" result="effect3_innerShadow_23_3"/>
</filter>
<filter id="filter15_i_23_3" x="41.5752" y="84.4354" width="746.645" height="172.837" filterUnits="userSpaceOnUse" color-interpolation-filters="sRGB">
<feFlood flood-opacity="0" result="BackgroundImageFix"/>
<feBlend mode="normal" in="SourceGraphic" in2="BackgroundImageFix" result="shape"/>
<feColorMatrix in="SourceAlpha" type="matrix" values="0 0 0 0 0 0 0 0 0 0 0 0 0 0 0 0 0 0 127 0" result="hardAlpha"/>
<feOffset dx="1" dy="1"/>
<feGaussianBlur stdDeviation="0.5"/>
<feComposite in2="hardAlpha" operator="arithmetic" k2="-1" k3="1"/>
<feColorMatrix type="matrix" values="0 0 0 0 0 0 0 0 0 0 0 0 0 0 0 0 0 0 0.25 0"/>
<feBlend mode="normal" in2="shape" result="effect1_innerShadow_23_3"/>
</filter>
<filter id="filter16_d_23_3" x="1555" y="356" width="515" height="465" filterUnits="userSpaceOnUse" color-interpolation-filters="sRGB">
<feFlood flood-opacity="0" result="BackgroundImageFix"/>
<feColorMatrix in="SourceAlpha" type="matrix" values="0 0 0 0 0 0 0 0 0 0 0 0 0 0 0 0 0 0 127 0" result="hardAlpha"/>
<feOffset dx="10" dy="10"/>
<feGaussianBlur stdDeviation="5"/>
<feComposite in2="hardAlpha" operator="out"/>
<feColorMatrix type="matrix" values="0 0 0 0 0 0 0 0 0 0 0 0 0 0 0 0 0 0 0.25 0"/>
<feBlend mode="normal" in2="BackgroundImageFix" result="effect1_dropShadow_23_3"/>
<feBlend mode="normal" in="SourceGraphic" in2="effect1_dropShadow_23_3" result="shape"/>
</filter>
<filter id="filter17_di_23_3" x="1576" y="363.292" width="460.462" height="447.442" filterUnits="userSpaceOnUse" color-interpolation-filters="sRGB">
<feFlood flood-opacity="0" result="BackgroundImageFix"/>
<feColorMatrix in="SourceAlpha" type="matrix" values="0 0 0 0 0 0 0 0 0 0 0 0 0 0 0 0 0 0 127 0" result="hardAlpha"/>
<feOffset dx="2" dy="2"/>
<feGaussianBlur stdDeviation="2"/>
<feComposite in2="hardAlpha" operator="out"/>
<feColorMatrix type="matrix" values="0 0 0 0 0 0 0 0 0 0 0 0 0 0 0 0 0 0 0.25 0"/>
<feBlend mode="normal" in2="BackgroundImageFix" result="effect1_dropShadow_23_3"/>
<feBlend mode="normal" in="SourceGraphic" in2="effect1_dropShadow_23_3" result="shape"/>
<feColorMatrix in="SourceAlpha" type="matrix" values="0 0 0 0 0 0 0 0 0 0 0 0 0 0 0 0 0 0 127 0" result="hardAlpha"/>
<feOffset dx="10" dy="10"/>
<feGaussianBlur stdDeviation="12.5"/>
<feComposite in2="hardAlpha" operator="arithmetic" k2="-1" k3="1"/>
<feColorMatrix type="matrix" values="0 0 0 0 0 0 0 0 0 0 0 0 0 0 0 0 0 0 0.25 0"/>
<feBlend mode="normal" in2="shape" result="effect2_innerShadow_23_3"/>
</filter>
<filter id="filter18_d_23_3" x="1043" y="356" width="515" height="465" filterUnits="userSpaceOnUse" color-interpolation-filters="sRGB">
<feFlood flood-opacity="0" result="BackgroundImageFix"/>
<feColorMatrix in="SourceAlpha" type="matrix" values="0 0 0 0 0 0 0 0 0 0 0 0 0 0 0 0 0 0 127 0" result="hardAlpha"/>
<feOffset dx="10" dy="10"/>
<feGaussianBlur stdDeviation="5"/>
<feComposite in2="hardAlpha" operator="out"/>
<feColorMatrix type="matrix" values="0 0 0 0 0 0 0 0 0 0 0 0 0 0 0 0 0 0 0.25 0"/>
<feBlend mode="normal" in2="BackgroundImageFix" result="effect1_dropShadow_23_3"/>
<feBlend mode="normal" in="SourceGraphic" in2="effect1_dropShadow_23_3" result="shape"/>
</filter>
<filter id="filter19_di_23_3" x="1064" y="363.292" width="460.462" height="447.442" filterUnits="userSpaceOnUse" color-interpolation-filters="sRGB">
<feFlood flood-opacity="0" result="BackgroundImageFix"/>
<feColorMatrix in="SourceAlpha" type="matrix" values="0 0 0 0 0 0 0 0 0 0 0 0 0 0 0 0 0 0 127 0" result="hardAlpha"/>
<feOffset dx="2" dy="2"/>
<feGaussianBlur stdDeviation="2"/>
<feComposite in2="hardAlpha" operator="out"/>
<feColorMatrix type="matrix" values="0 0 0 0 0 0 0 0 0 0 0 0 0 0 0 0 0 0 0.25 0"/>
<feBlend mode="normal" in2="BackgroundImageFix" result="effect1_dropShadow_23_3"/>
<feBlend mode="normal" in="SourceGraphic" in2="effect1_dropShadow_23_3" result="shape"/>
<feColorMatrix in="SourceAlpha" type="matrix" values="0 0 0 0 0 0 0 0 0 0 0 0 0 0 0 0 0 0 127 0" result="hardAlpha"/>
<feOffset dx="10" dy="10"/>
<feGaussianBlur stdDeviation="12.5"/>
<feComposite in2="hardAlpha" operator="arithmetic" k2="-1" k3="1"/>
<feColorMatrix type="matrix" values="0 0 0 0 0 0 0 0 0 0 0 0 0 0 0 0 0 0 0.25 0"/>
<feBlend mode="normal" in2="shape" result="effect2_innerShadow_23_3"/>
</filter>
<filter id="filter20_di_23_3" x="19" y="823" width="631" height="595" filterUnits="userSpaceOnUse" color-interpolation-filters="sRGB">
<feFlood flood-opacity="0" result="BackgroundImageFix"/>
<feColorMatrix in="SourceAlpha" type="matrix" values="0 0 0 0 0 0 0 0 0 0 0 0 0 0 0 0 0 0 127 0" result="hardAlpha"/>
<feOffset dx="8" dy="8"/>
<feGaussianBlur stdDeviation="4"/>
<feComposite in2="hardAlpha" operator="out"/>
<feColorMatrix type="matrix" values="0 0 0 0 0 0 0 0 0 0 0 0 0 0 0 0 0 0 0.25 0"/>
<feBlend mode="normal" in2="BackgroundImageFix" result="effect1_dropShadow_23_3"/>
<feBlend mode="normal" in="SourceGraphic" in2="effect1_dropShadow_23_3" result="shape"/>
<feColorMatrix in="SourceAlpha" type="matrix" values="0 0 0 0 0 0 0 0 0 0 0 0 0 0 0 0 0 0 127 0" result="hardAlpha"/>
<feOffset dx="8" dy="4"/>
<feGaussianBlur stdDeviation="4.5"/>
<feComposite in2="hardAlpha" operator="arithmetic" k2="-1" k3="1"/>
<feColorMatrix type="matrix" values="0 0 0 0 0 0 0 0 0 0 0 0 0 0 0 0 0 0 0.25 0"/>
<feBlend mode="normal" in2="shape" result="effect2_innerShadow_23_3"/>
</filter>
<filter id="filter21_dii_23_3" x="11" y="815" width="634" height="598" filterUnits="userSpaceOnUse" color-interpolation-filters="sRGB">
<feFlood flood-opacity="0" result="BackgroundImageFix"/>
<feColorMatrix in="SourceAlpha" type="matrix" values="0 0 0 0 0 0 0 0 0 0 0 0 0 0 0 0 0 0 127 0" result="hardAlpha"/>
<feOffset dx="8" dy="8"/>
<feGaussianBlur stdDeviation="4"/>
<feComposite in2="hardAlpha" operator="out"/>
<feColorMatrix type="matrix" values="0 0 0 0 0 0 0 0 0 0 0 0 0 0 0 0 0 0 0.25 0"/>
<feBlend mode="normal" in2="BackgroundImageFix" result="effect1_dropShadow_23_3"/>
<feBlend mode="normal" in="SourceGraphic" in2="effect1_dropShadow_23_3" result="shape"/>
<feColorMatrix in="SourceAlpha" type="matrix" values="0 0 0 0 0 0 0 0 0 0 0 0 0 0 0 0 0 0 127 0" result="hardAlpha"/>
<feOffset dx="10" dy="10"/>
<feGaussianBlur stdDeviation="5"/>
<feComposite in2="hardAlpha" operator="arithmetic" k2="-1" k3="1"/>
<feColorMatrix type="matrix" values="0 0 0 0 0 0 0 0 0 0 0 0 0 0 0 0 0 0 0.25 0"/>
<feBlend mode="normal" in2="shape" result="effect2_innerShadow_23_3"/>
<feColorMatrix in="SourceAlpha" type="matrix" values="0 0 0 0 0 0 0 0 0 0 0 0 0 0 0 0 0 0 127 0" result="hardAlpha"/>
<feOffset dx="-8" dy="-8"/>
<feGaussianBlur stdDeviation="20"/>
<feComposite in2="hardAlpha" operator="arithmetic" k2="-1" k3="1"/>
<feColorMatrix type="matrix" values="0 0 0 0 0 0 0 0 0 0 0 0 0 0 0 0 0 0 0.25 0"/>
<feBlend mode="normal" in2="effect2_innerShadow_23_3" result="effect3_innerShadow_23_3"/>
</filter>
<filter id="filter22_di_23_3" x="656" y="823" width="631" height="595" filterUnits="userSpaceOnUse" color-interpolation-filters="sRGB">
<feFlood flood-opacity="0" result="BackgroundImageFix"/>
<feColorMatrix in="SourceAlpha" type="matrix" values="0 0 0 0 0 0 0 0 0 0 0 0 0 0 0 0 0 0 127 0" result="hardAlpha"/>
<feOffset dx="8" dy="8"/>
<feGaussianBlur stdDeviation="4"/>
<feComposite in2="hardAlpha" operator="out"/>
<feColorMatrix type="matrix" values="0 0 0 0 0 0 0 0 0 0 0 0 0 0 0 0 0 0 0.25 0"/>
<feBlend mode="normal" in2="BackgroundImageFix" result="effect1_dropShadow_23_3"/>
<feBlend mode="normal" in="SourceGraphic" in2="effect1_dropShadow_23_3" result="shape"/>
<feColorMatrix in="SourceAlpha" type="matrix" values="0 0 0 0 0 0 0 0 0 0 0 0 0 0 0 0 0 0 127 0" result="hardAlpha"/>
<feOffset dx="8" dy="4"/>
<feGaussianBlur stdDeviation="4.5"/>
<feComposite in2="hardAlpha" operator="arithmetic" k2="-1" k3="1"/>
<feColorMatrix type="matrix" values="0 0 0 0 0 0 0 0 0 0 0 0 0 0 0 0 0 0 0.25 0"/>
<feBlend mode="normal" in2="shape" result="effect2_innerShadow_23_3"/>
</filter>
<filter id="filter23_dii_23_3" x="648" y="815" width="634" height="598" filterUnits="userSpaceOnUse" color-interpolation-filters="sRGB">
<feFlood flood-opacity="0" result="BackgroundImageFix"/>
<feColorMatrix in="SourceAlpha" type="matrix" values="0 0 0 0 0 0 0 0 0 0 0 0 0 0 0 0 0 0 127 0" result="hardAlpha"/>
<feOffset dx="8" dy="8"/>
<feGaussianBlur stdDeviation="4"/>
<feComposite in2="hardAlpha" operator="out"/>
<feColorMatrix type="matrix" values="0 0 0 0 0 0 0 0 0 0 0 0 0 0 0 0 0 0 0.25 0"/>
<feBlend mode="normal" in2="BackgroundImageFix" result="effect1_dropShadow_23_3"/>
<feBlend mode="normal" in="SourceGraphic" in2="effect1_dropShadow_23_3" result="shape"/>
<feColorMatrix in="SourceAlpha" type="matrix" values="0 0 0 0 0 0 0 0 0 0 0 0 0 0 0 0 0 0 127 0" result="hardAlpha"/>
<feOffset dx="10" dy="10"/>
<feGaussianBlur stdDeviation="5"/>
<feComposite in2="hardAlpha" operator="arithmetic" k2="-1" k3="1"/>
<feColorMatrix type="matrix" values="0 0 0 0 0 0 0 0 0 0 0 0 0 0 0 0 0 0 0.25 0"/>
<feBlend mode="normal" in2="shape" result="effect2_innerShadow_23_3"/>
<feColorMatrix in="SourceAlpha" type="matrix" values="0 0 0 0 0 0 0 0 0 0 0 0 0 0 0 0 0 0 127 0" result="hardAlpha"/>
<feOffset dx="-8" dy="-8"/>
<feGaussianBlur stdDeviation="20"/>
<feComposite in2="hardAlpha" operator="arithmetic" k2="-1" k3="1"/>
<feColorMatrix type="matrix" values="0 0 0 0 0 0 0 0 0 0 0 0 0 0 0 0 0 0 0.25 0"/>
<feBlend mode="normal" in2="effect2_innerShadow_23_3" result="effect3_innerShadow_23_3"/>
</filter>
<filter id="filter24_di_23_3" x="1293" y="823" width="631" height="595" filterUnits="userSpaceOnUse" color-interpolation-filters="sRGB">
<feFlood flood-opacity="0" result="BackgroundImageFix"/>
<feColorMatrix in="SourceAlpha" type="matrix" values="0 0 0 0 0 0 0 0 0 0 0 0 0 0 0 0 0 0 127 0" result="hardAlpha"/>
<feOffset dx="8" dy="8"/>
<feGaussianBlur stdDeviation="4"/>
<feComposite in2="hardAlpha" operator="out"/>
<feColorMatrix type="matrix" values="0 0 0 0 0 0 0 0 0 0 0 0 0 0 0 0 0 0 0.25 0"/>
<feBlend mode="normal" in2="BackgroundImageFix" result="effect1_dropShadow_23_3"/>
<feBlend mode="normal" in="SourceGraphic" in2="effect1_dropShadow_23_3" result="shape"/>
<feColorMatrix in="SourceAlpha" type="matrix" values="0 0 0 0 0 0 0 0 0 0 0 0 0 0 0 0 0 0 127 0" result="hardAlpha"/>
<feOffset dx="8" dy="4"/>
<feGaussianBlur stdDeviation="4.5"/>
<feComposite in2="hardAlpha" operator="arithmetic" k2="-1" k3="1"/>
<feColorMatrix type="matrix" values="0 0 0 0 0 0 0 0 0 0 0 0 0 0 0 0 0 0 0.25 0"/>
<feBlend mode="normal" in2="shape" result="effect2_innerShadow_23_3"/>
</filter>
<filter id="filter25_dii_23_3" x="1285" y="815" width="634" height="598" filterUnits="userSpaceOnUse" color-interpolation-filters="sRGB">
<feFlood flood-opacity="0" result="BackgroundImageFix"/>
<feColorMatrix in="SourceAlpha" type="matrix" values="0 0 0 0 0 0 0 0 0 0 0 0 0 0 0 0 0 0 127 0" result="hardAlpha"/>
<feOffset dx="8" dy="8"/>
<feGaussianBlur stdDeviation="4"/>
<feComposite in2="hardAlpha" operator="out"/>
<feColorMatrix type="matrix" values="0 0 0 0 0 0 0 0 0 0 0 0 0 0 0 0 0 0 0.25 0"/>
<feBlend mode="normal" in2="BackgroundImageFix" result="effect1_dropShadow_23_3"/>
<feBlend mode="normal" in="SourceGraphic" in2="effect1_dropShadow_23_3" result="shape"/>
<feColorMatrix in="SourceAlpha" type="matrix" values="0 0 0 0 0 0 0 0 0 0 0 0 0 0 0 0 0 0 127 0" result="hardAlpha"/>
<feOffset dx="10" dy="10"/>
<feGaussianBlur stdDeviation="5"/>
<feComposite in2="hardAlpha" operator="arithmetic" k2="-1" k3="1"/>
<feColorMatrix type="matrix" values="0 0 0 0 0 0 0 0 0 0 0 0 0 0 0 0 0 0 0.25 0"/>
<feBlend mode="normal" in2="shape" result="effect2_innerShadow_23_3"/>
<feColorMatrix in="SourceAlpha" type="matrix" values="0 0 0 0 0 0 0 0 0 0 0 0 0 0 0 0 0 0 127 0" result="hardAlpha"/>
<feOffset dx="-8" dy="-8"/>
<feGaussianBlur stdDeviation="20"/>
<feComposite in2="hardAlpha" operator="arithmetic" k2="-1" k3="1"/>
<feColorMatrix type="matrix" values="0 0 0 0 0 0 0 0 0 0 0 0 0 0 0 0 0 0 0.25 0"/>
<feBlend mode="normal" in2="effect2_innerShadow_23_3" result="effect3_innerShadow_23_3"/>
</filter>
<filter id="filter26_di_23_3" x="1930" y="823" width="631" height="595" filterUnits="userSpaceOnUse" color-interpolation-filters="sRGB">
<feFlood flood-opacity="0" result="BackgroundImageFix"/>
<feColorMatrix in="SourceAlpha" type="matrix" values="0 0 0 0 0 0 0 0 0 0 0 0 0 0 0 0 0 0 127 0" result="hardAlpha"/>
<feOffset dx="8" dy="8"/>
<feGaussianBlur stdDeviation="4"/>
<feComposite in2="hardAlpha" operator="out"/>
<feColorMatrix type="matrix" values="0 0 0 0 0 0 0 0 0 0 0 0 0 0 0 0 0 0 0.25 0"/>
<feBlend mode="normal" in2="BackgroundImageFix" result="effect1_dropShadow_23_3"/>
<feBlend mode="normal" in="SourceGraphic" in2="effect1_dropShadow_23_3" result="shape"/>
<feColorMatrix in="SourceAlpha" type="matrix" values="0 0 0 0 0 0 0 0 0 0 0 0 0 0 0 0 0 0 127 0" result="hardAlpha"/>
<feOffset dx="8" dy="4"/>
<feGaussianBlur stdDeviation="4.5"/>
<feComposite in2="hardAlpha" operator="arithmetic" k2="-1" k3="1"/>
<feColorMatrix type="matrix" values="0 0 0 0 0 0 0 0 0 0 0 0 0 0 0 0 0 0 0.25 0"/>
<feBlend mode="normal" in2="shape" result="effect2_innerShadow_23_3"/>
</filter>
<filter id="filter27_dii_23_3" x="1922" y="815" width="634" height="598" filterUnits="userSpaceOnUse" color-interpolation-filters="sRGB">
<feFlood flood-opacity="0" result="BackgroundImageFix"/>
<feColorMatrix in="SourceAlpha" type="matrix" values="0 0 0 0 0 0 0 0 0 0 0 0 0 0 0 0 0 0 127 0" result="hardAlpha"/>
<feOffset dx="8" dy="8"/>
<feGaussianBlur stdDeviation="4"/>
<feComposite in2="hardAlpha" operator="out"/>
<feColorMatrix type="matrix" values="0 0 0 0 0 0 0 0 0 0 0 0 0 0 0 0 0 0 0.25 0"/>
<feBlend mode="normal" in2="BackgroundImageFix" result="effect1_dropShadow_23_3"/>
<feBlend mode="normal" in="SourceGraphic" in2="effect1_dropShadow_23_3" result="shape"/>
<feColorMatrix in="SourceAlpha" type="matrix" values="0 0 0 0 0 0 0 0 0 0 0 0 0 0 0 0 0 0 127 0" result="hardAlpha"/>
<feOffset dx="10" dy="10"/>
<feGaussianBlur stdDeviation="5"/>
<feComposite in2="hardAlpha" operator="arithmetic" k2="-1" k3="1"/>
<feColorMatrix type="matrix" values="0 0 0 0 0 0 0 0 0 0 0 0 0 0 0 0 0 0 0.25 0"/>
<feBlend mode="normal" in2="shape" result="effect2_innerShadow_23_3"/>
<feColorMatrix in="SourceAlpha" type="matrix" values="0 0 0 0 0 0 0 0 0 0 0 0 0 0 0 0 0 0 127 0" result="hardAlpha"/>
<feOffset dx="-8" dy="-8"/>
<feGaussianBlur stdDeviation="20"/>
<feComposite in2="hardAlpha" operator="arithmetic" k2="-1" k3="1"/>
<feColorMatrix type="matrix" values="0 0 0 0 0 0 0 0 0 0 0 0 0 0 0 0 0 0 0.25 0"/>
<feBlend mode="normal" in2="effect2_innerShadow_23_3" result="effect3_innerShadow_23_3"/>
</filter>
<linearGradient id="paint0_linear_23_3" x1="4.99991" y1="339" x2="3075" y2="1283" gradientUnits="userSpaceOnUse">
<stop stop-color="#05011A"/>
<stop offset="1" stop-color="#2705F7" stop-opacity="0.99"/>
<stop offset="1" stop-color="#1D0D7F" stop-opacity="0.458268"/>
<stop offset="1" stop-color="#221096"/>
</linearGradient>
</defs>
</svg>
